<?xml version="1.0" standalone="no"?><!DOCTYPE svg PUBLIC "-//W3C//DTD SVG 1.1//EN" "http://www.w3.org/Graphics/SVG/1.1/DTD/svg11.dtd"><svg t="1781445512207" class="icon" viewBox="0 0 1136 1024" version="1.1" xmlns="http://www.w3.org/2000/svg" p-id="66756" xmlns:xlink="http://www.w3.org/1999/xlink" width="221.875" height="200"><path d="M401.512 718.044v0.512c0 11.264 5.624 56.304 61.928 73.2l123.868 39.412L609.712 904H52.56C26.704 900.68 2.408 874.344 1.772 838.248l-0.016-1.456v-270.252l225.212-225.204 112.604 112.6 197.064-197.056 253.628 251.388-321.192 125.836c-61.32 27.872-67.444 66.776-67.56 83.94zM967.224 4c29.108 3.412 47.976 24.9 47.976 55.824v360.336l-139.512 54.648-339.052-332.104-56.308 57.88-140.756 140.756-112.6-112.608L1.752 453.94v-394.12C1.76 28.896 25.352 7.408 50.936 3.996h916.288z" fill="#B9D6EA" p-id="66757" data-spm-anchor-id="a313x.search_index.0.i10.79ba3a81Amzygc" class=""></path><path d="M632.348 786.12l56.304 174.54c5.624 16.892 16.888 22.52 28.148 22.52 11.26 0 16.892-5.628 22.52-16.888l73.192-67.56 157.648 112.6c28.152 16.892 50.672 5.632 56.304-28.148l101.344-478.572c11.26-45.04-5.632-61.932-45.044-50.672l-591.176 230.84c-39.408 16.888-39.408 39.408-5.628 50.668l146.388 50.672z" fill="#61B2EB" p-id="66758" data-spm-anchor-id="a313x.search_index.0.i11.79ba3a81Amzygc" class=""></path></svg>